<!DOCTYPE svg PUBLIC "-//W3C//DTD SVG 1.1//EN" "http://www.w3.org/Graphics/SVG/1.1/DTD/svg11.dtd">
<!-- Uploaded to: SVG Repo, www.svgrepo.com, Transformed by: SVG Repo Mixer Tools -->
<svg width="90px" height="90px" viewBox="0 0 24 24" xmlns="http://www.w3.org/2000/svg" fill="none">
<g id="SVGRepo_bgCarrier" stroke-width="0"/>
<g id="SVGRepo_tracerCarrier" stroke-linecap="round" stroke-linejoin="round"/>
<g id="SVGRepo_iconCarrier">
<path stroke="#e6efe7" stroke-linecap="round" stroke-linejoin="round" stroke-width="2" d="M7 3H5a2 2 0 0 0-2 2v2m0 10v2a2 2 0 0 0 2 2h2m10 0h2a2 2 0 0 0 2-2v-2m0-10V5a2 2 0 0 0-2-2h-2"/>
<circle cx="12" cy="9" r="3" stroke="#e6efe7" stroke-linecap="round" stroke-linejoin="round" stroke-width="2"/>
<path stroke="#e6efe7" stroke-linecap="round" stroke-linejoin="round" stroke-width="2" d="M17 16c0-2.21-2.239-4-5-4s-5 1.79-5 4"/>
</g>
</svg>